<svg xmlns="http://www.w3.org/2000/svg" viewBox="0 0 400 600" role="img" aria-label="Krishnaveni series poster">
  <defs>
    <linearGradient id="rBg" x1="0" y1="0" x2="0" y2="1">
      <stop offset="0" stop-color="#231c16"/>
      <stop offset="0.5" stop-color="#12110e"/>
      <stop offset="1" stop-color="#0a0805"/>
    </linearGradient>
    <radialGradient id="rGlow" cx="0.5" cy="0.27" r="0.62">
      <stop offset="0" stop-color="#d9b877" stop-opacity="0.35"/>
      <stop offset="1" stop-color="#d9b877" stop-opacity="0"/>
    </radialGradient>
    <linearGradient id="rRing" x1="0" y1="0" x2="1" y2="1">
      <stop offset="0" stop-color="#e7d3a3"/>
      <stop offset="1" stop-color="#8a6b35"/>
    </linearGradient>
  </defs>

  <rect width="400" height="600" fill="url(#rBg)"/>
  <rect width="400" height="600" fill="url(#rGlow)"/>

  <g fill="#000000" opacity="0.55">
    <rect x="0" y="0" width="20" height="600"/>
    <rect x="380" y="0" width="20" height="600"/>
  </g>
  <g fill="#f0ead9" opacity="0.14">
    <rect x="6" y="16" width="8" height="12" rx="2"/><rect x="6" y="48" width="8" height="12" rx="2"/><rect x="6" y="80" width="8" height="12" rx="2"/><rect x="6" y="112" width="8" height="12" rx="2"/><rect x="6" y="144" width="8" height="12" rx="2"/><rect x="6" y="176" width="8" height="12" rx="2"/><rect x="6" y="208" width="8" height="12" rx="2"/><rect x="6" y="240" width="8" height="12" rx="2"/><rect x="6" y="272" width="8" height="12" rx="2"/><rect x="6" y="304" width="8" height="12" rx="2"/><rect x="6" y="336" width="8" height="12" rx="2"/><rect x="6" y="368" width="8" height="12" rx="2"/><rect x="6" y="400" width="8" height="12" rx="2"/><rect x="6" y="432" width="8" height="12" rx="2"/><rect x="6" y="464" width="8" height="12" rx="2"/><rect x="6" y="496" width="8" height="12" rx="2"/><rect x="6" y="528" width="8" height="12" rx="2"/><rect x="6" y="560" width="8" height="12" rx="2"/>
    <rect x="386" y="16" width="8" height="12" rx="2"/><rect x="386" y="48" width="8" height="12" rx="2"/><rect x="386" y="80" width="8" height="12" rx="2"/><rect x="386" y="112" width="8" height="12" rx="2"/><rect x="386" y="144" width="8" height="12" rx="2"/><rect x="386" y="176" width="8" height="12" rx="2"/><rect x="386" y="208" width="8" height="12" rx="2"/><rect x="386" y="240" width="8" height="12" rx="2"/><rect x="386" y="272" width="8" height="12" rx="2"/><rect x="386" y="304" width="8" height="12" rx="2"/><rect x="386" y="336" width="8" height="12" rx="2"/><rect x="386" y="368" width="8" height="12" rx="2"/><rect x="386" y="400" width="8" height="12" rx="2"/><rect x="386" y="432" width="8" height="12" rx="2"/><rect x="386" y="464" width="8" height="12" rx="2"/><rect x="386" y="496" width="8" height="12" rx="2"/><rect x="386" y="528" width="8" height="12" rx="2"/><rect x="386" y="560" width="8" height="12" rx="2"/>
  </g>

  <!-- river motif -->
  <g transform="translate(200 190)" stroke="url(#rRing)" fill="none" stroke-width="2.4" stroke-linecap="round">
    <path d="M-64 -30 C -30 -6, -30 -6, 0 -30 C 30 -54, 30 -54, 64 -30"/>
    <path d="M-64 0 C -30 24, -30 24, 0 0 C 30 -24, 30 -24, 64 0"/>
    <path d="M-64 30 C -30 54, -30 54, 0 30 C 30 6, 30 6, 64 30"/>
  </g>

  <text x="200" y="330" text-anchor="middle" fill="#d9b877" font-family="Inter, Segoe UI, Arial, sans-serif" font-size="14" font-weight="600" letter-spacing="5">IN-HOUSE ORIGINAL</text>

  <text x="200" y="404" text-anchor="middle" fill="#f0ead9" font-family="Georgia, 'Times New Roman', serif" font-size="46" font-weight="700">Krishnaveni</text>

  <rect x="160" y="428" width="80" height="2" fill="#d9b877"/>

  <text x="200" y="462" text-anchor="middle" fill="#c3bda9" font-family="Inter, Segoe UI, Arial, sans-serif" font-size="14" letter-spacing="3">TAMIL OTT DRAMA</text>

  <text x="200" y="566" text-anchor="middle" fill="#837e70" font-family="Inter, Segoe UI, Arial, sans-serif" font-size="12" font-weight="600" letter-spacing="4">RISHABA ENTERTAINMENTS</text>
</svg>
