<svg xmlns="http://www.w3.org/2000/svg" viewBox="0 0 400 600" role="img" aria-label="7 Kottai Veedu series poster">
  <defs>
    <linearGradient id="kBg" x1="0" y1="0" x2="0" y2="1">
      <stop offset="0" stop-color="#14202e"/>
      <stop offset="0.5" stop-color="#0e131a"/>
      <stop offset="1" stop-color="#080a0e"/>
    </linearGradient>
    <radialGradient id="kGlow" cx="0.5" cy="0.26" r="0.62">
      <stop offset="0" stop-color="#6c9bd1" stop-opacity="0.4"/>
      <stop offset="1" stop-color="#6c9bd1" stop-opacity="0"/>
    </radialGradient>
    <linearGradient id="kRing" x1="0" y1="0" x2="1" y2="1">
      <stop offset="0" stop-color="#a9cbee"/>
      <stop offset="1" stop-color="#2c4a70"/>
    </linearGradient>
  </defs>

  <rect width="400" height="600" fill="url(#kBg)"/>
  <rect width="400" height="600" fill="url(#kGlow)"/>

  <g fill="#000000" opacity="0.55">
    <rect x="0" y="0" width="20" height="600"/>
    <rect x="380" y="0" width="20" height="600"/>
  </g>
  <g fill="#f0ead9" opacity="0.14">
    <rect x="6" y="16" width="8" height="12" rx="2"/><rect x="6" y="48" width="8" height="12" rx="2"/><rect x="6" y="80" width="8" height="12" rx="2"/><rect x="6" y="112" width="8" height="12" rx="2"/><rect x="6" y="144" width="8" height="12" rx="2"/><rect x="6" y="176" width="8" height="12" rx="2"/><rect x="6" y="208" width="8" height="12" rx="2"/><rect x="6" y="240" width="8" height="12" rx="2"/><rect x="6" y="272" width="8" height="12" rx="2"/><rect x="6" y="304" width="8" height="12" rx="2"/><rect x="6" y="336" width="8" height="12" rx="2"/><rect x="6" y="368" width="8" height="12" rx="2"/><rect x="6" y="400" width="8" height="12" rx="2"/><rect x="6" y="432" width="8" height="12" rx="2"/><rect x="6" y="464" width="8" height="12" rx="2"/><rect x="6" y="496" width="8" height="12" rx="2"/><rect x="6" y="528" width="8" height="12" rx="2"/><rect x="6" y="560" width="8" height="12" rx="2"/>
    <rect x="386" y="16" width="8" height="12" rx="2"/><rect x="386" y="48" width="8" height="12" rx="2"/><rect x="386" y="80" width="8" height="12" rx="2"/><rect x="386" y="112" width="8" height="12" rx="2"/><rect x="386" y="144" width="8" height="12" rx="2"/><rect x="386" y="176" width="8" height="12" rx="2"/><rect x="386" y="208" width="8" height="12" rx="2"/><rect x="386" y="240" width="8" height="12" rx="2"/><rect x="386" y="272" width="8" height="12" rx="2"/><rect x="386" y="304" width="8" height="12" rx="2"/><rect x="386" y="336" width="8" height="12" rx="2"/><rect x="386" y="368" width="8" height="12" rx="2"/><rect x="386" y="400" width="8" height="12" rx="2"/><rect x="386" y="432" width="8" height="12" rx="2"/><rect x="386" y="464" width="8" height="12" rx="2"/><rect x="386" y="496" width="8" height="12" rx="2"/><rect x="386" y="528" width="8" height="12" rx="2"/><rect x="386" y="560" width="8" height="12" rx="2"/>
  </g>

  <!-- house / gopuram motif -->
  <g transform="translate(200 175)" stroke="url(#kRing)" fill="none" stroke-width="2.2" stroke-linejoin="round">
    <path d="M0 -58 L52 -6 L34 -6 L34 60 L-34 60 L-34 -6 L-52 -6 Z"/>
    <path d="M-16 60 L-16 18 L16 18 L16 60"/>
    <line x1="-34" y1="14" x2="34" y2="14"/>
  </g>
  <text x="200" y="150" text-anchor="middle" fill="#a9cbee" font-family="Georgia, serif" font-size="34" font-weight="700">7</text>

  <text x="200" y="330" text-anchor="middle" fill="#6c9bd1" font-family="Inter, Segoe UI, Arial, sans-serif" font-size="14" font-weight="600" letter-spacing="5">PREMIUM OTT SERIES</text>

  <text x="200" y="392" text-anchor="middle" fill="#f0ead9" font-family="Georgia, 'Times New Roman', serif" font-size="52" font-weight="700">7 Kottai</text>
  <text x="200" y="448" text-anchor="middle" fill="#f0ead9" font-family="Georgia, 'Times New Roman', serif" font-size="52" font-weight="700">Veedu</text>

  <rect x="160" y="470" width="80" height="2" fill="#6c9bd1"/>

  <text x="200" y="504" text-anchor="middle" fill="#c3bda9" font-family="Inter, Segoe UI, Arial, sans-serif" font-size="14" letter-spacing="3">IN DEVELOPMENT</text>

  <text x="200" y="566" text-anchor="middle" fill="#837e70" font-family="Inter, Segoe UI, Arial, sans-serif" font-size="12" font-weight="600" letter-spacing="4">RISHABA ENTERTAINMENTS</text>
</svg>
